<svg width="76" height="32" viewBox="0 0 76 32" fill="none" xmlns="http://www.w3.org/2000/svg">
<path d="M13.8914 4.23634C12.9984 5.30034 11.5758 6.14347 10.1556 6.01997C9.96793 4.58547 10.6757 3.04884 11.4927 2.09647C12.3833 1.01109 13.9413 0.232094 15.2048 0.167969C15.3544 1.66659 14.7678 3.13909 13.8914 4.23634ZM15.1906 6.30259C13.1267 6.17672 11.3549 7.48772 10.3764 7.48772C9.37656 7.48772 7.87793 6.36434 6.24631 6.40234C4.13018 6.42847 2.15181 7.63735 1.07593 9.58247C-1.16369 13.4513 0.494057 19.1798 2.64581 22.3338C3.69793 23.8918 4.95668 25.5995 6.61681 25.552C8.18668 25.4878 8.81843 24.5141 10.7113 24.5141C12.6279 24.5141 13.1718 25.552 14.8438 25.514C16.5609 25.4878 17.6487 23.956 18.7008 22.398C19.9002 20.6286 20.3942 18.8948 20.4203 18.8093C20.3942 18.7713 17.0929 17.4983 17.0692 13.6627C17.0431 10.4446 19.6651 8.91272 19.7767 8.82484C18.3042 6.59947 15.9791 6.36435 15.1882 6.30497L15.1906 6.30259ZM27.1036 1.94685V25.3525H30.7017V17.3511H35.6773C40.2159 17.3511 43.4079 14.1971 43.4079 9.64422C43.4079 5.08185 40.2801 1.94922 35.8008 1.94922L27.1036 1.94685ZM30.7017 5.01534H34.8461C37.9621 5.01534 39.7457 6.69684 39.7457 9.65372C39.7457 12.6106 37.9621 14.3063 34.8223 14.3063H30.7017V5.01534ZM49.9606 25.5258C52.2239 25.5258 54.3139 24.3763 55.2687 22.5428H55.3447V25.3525H58.6697V13.6983C58.6697 10.3353 56.0002 8.14797 51.8796 8.14797C48.0701 8.14797 45.2486 10.3615 45.1512 13.392H48.3788C48.6519 11.9456 49.9629 11.0051 51.7822 11.0051C53.9838 11.0051 55.2093 12.043 55.2093 13.9501V15.235L50.7324 15.5081C46.5501 15.767 44.2986 17.4865 44.2986 20.4932C44.2986 23.5237 46.6261 25.5282 49.9629 25.5282L49.9606 25.5258ZM50.9391 22.7542C49.0201 22.7542 47.7969 21.8256 47.7969 20.4053C47.7969 18.9328 48.9726 18.066 51.2098 17.9282L55.2069 17.6812V19.0041C55.2069 21.1962 53.3639 22.7542 50.9248 22.7542H50.9391ZM63.1109 31.7222C66.6093 31.7222 68.2576 30.3613 69.6921 26.2668L76.0001 8.38072H72.3521L68.1222 22.1961H68.0462L63.8163 8.38072H60.0567L66.1438 25.4142L65.8208 26.4521C65.2627 28.1977 64.3744 28.8746 62.7903 28.8746C62.5053 28.8746 61.9614 28.839 61.7382 28.8152V31.6248C61.9472 31.6842 62.8402 31.7103 63.0991 31.7103L63.1109 31.7222Z" fill="white"/>
</svg>
