<svg width="20" height="14" viewBox="0 0 20 14" fill="none" xmlns="http://www.w3.org/2000/svg">
<path d="M19.6596 1.88786L7.35559 13.675C7.24843 13.778 7.12109 13.8597 6.98088 13.9155C6.84067 13.9713 6.69034 14 6.53853 14C6.38671 14 6.23638 13.9713 6.09617 13.9155C5.95596 13.8597 5.82862 13.778 5.72146 13.675L0.33844 8.51812C0.231141 8.41532 0.146027 8.29329 0.0879575 8.15899C0.029888 8.02469 1.59887e-09 7.88074 0 7.73538C-1.59887e-09 7.59001 0.029888 7.44606 0.0879575 7.31176C0.146027 7.17746 0.231141 7.05543 0.33844 6.95264C0.445738 6.84985 0.57312 6.76831 0.713312 6.71268C0.853505 6.65705 1.00376 6.62842 1.15551 6.62842C1.30725 6.62842 1.45751 6.65705 1.5977 6.71268C1.73789 6.76831 1.86527 6.84985 1.97257 6.95264L6.53949 11.3277L18.0274 0.324221C18.2441 0.116626 18.538 0 18.8445 0C19.151 0 19.4449 0.116626 19.6616 0.324221C19.8783 0.531816 20 0.813376 20 1.10696C20 1.40054 19.8783 1.6821 19.6616 1.8897L19.6596 1.88786Z" fill="white"/>
</svg>
