<svg width="94" height="94" viewBox="0 0 94 94" fill="none" xmlns="http://www.w3.org/2000/svg">
<path d="M23.4998 56.7936C23.4998 57.8324 23.0872 58.8286 22.3527 59.5631C21.6182 60.2976 20.6219 60.7103 19.5832 60.7103C18.5444 60.7103 17.5482 60.2976 16.8137 59.5631C16.0792 58.8286 15.6665 57.8324 15.6665 56.7936V39.1686C15.6665 38.1299 16.0792 37.1336 16.8137 36.3991C17.5482 35.6646 18.5444 35.252 19.5832 35.252C20.6219 35.252 21.6182 35.6646 22.3527 36.3991C23.0872 37.1336 23.4998 38.1299 23.4998 39.1686V56.7936ZM78.3332 56.7936C78.3332 57.8324 77.9205 58.8286 77.186 59.5631C76.4515 60.2976 75.4553 60.7103 74.4165 60.7103C73.3777 60.7103 72.3815 60.2976 71.647 59.5631C70.9125 58.8286 70.4998 57.8324 70.4998 56.7936V39.1686C70.4998 38.1299 70.9125 37.1336 71.647 36.3991C72.3815 35.6646 73.3777 35.252 74.4165 35.252C75.4553 35.252 76.4515 35.6646 77.186 36.3991C77.9205 37.1336 78.3332 38.1299 78.3332 39.1686V56.7936ZM43.0832 78.3333C43.0832 79.3721 42.6705 80.3683 41.936 81.1028C41.2015 81.8374 40.2053 82.25 39.1665 82.25C38.1277 82.25 37.1315 81.8374 36.397 81.1028C35.6625 80.3683 35.2498 79.3721 35.2498 78.3333V60.7083C35.2498 59.6696 35.6625 58.6733 36.397 57.9388C37.1315 57.2043 38.1277 56.7917 39.1665 56.7917C40.2053 56.7917 41.2015 57.2043 41.936 57.9388C42.6705 58.6733 43.0832 59.6696 43.0832 60.7083V78.3333ZM58.7498 78.3333C58.7498 79.3721 58.3372 80.3683 57.6027 81.1028C56.8682 81.8374 55.8719 82.25 54.8332 82.25C53.7944 82.25 52.7982 81.8374 52.0637 81.1028C51.3292 80.3683 50.9165 79.3721 50.9165 78.3333V60.7083C50.9165 59.6696 51.3292 58.6733 52.0637 57.9388C52.7982 57.2043 53.7944 56.7917 54.8332 56.7917C55.8719 56.7917 56.8682 57.2043 57.6027 57.9388C58.3372 58.6733 58.7498 59.6696 58.7498 60.7083V78.3333Z" fill="#7CB342"/>
<path d="M27.4165 35.252V64.625C27.4165 65.6638 27.8292 66.66 28.5637 67.3945C29.2982 68.129 30.2944 68.5417 31.3332 68.5417H62.6665C63.7053 68.5417 64.7015 68.129 65.436 67.3945C66.1705 66.66 66.5832 65.6638 66.5832 64.625V35.252H27.4165ZM46.9998 15.6667C35.2498 15.6667 28.0921 22.8048 27.4165 31.3334H66.5832C65.9056 22.8048 58.7498 15.6667 46.9998 15.6667ZM39.1665 26.6294C38.6471 26.6294 38.149 26.4231 37.7818 26.0559C37.4145 25.6886 37.2082 25.1905 37.2082 24.6711C37.2082 24.1517 37.4145 23.6536 37.7818 23.2864C38.149 22.9191 38.6471 22.7128 39.1665 22.7128C39.6859 22.7128 40.184 22.9191 40.5513 23.2864C40.9185 23.6536 41.1248 24.1517 41.1248 24.6711C41.1248 25.1905 40.9185 25.6886 40.5513 26.0559C40.184 26.4231 39.6859 26.6294 39.1665 26.6294ZM54.8332 26.6294C54.3138 26.6294 53.8157 26.4231 53.4484 26.0559C53.0812 25.6886 52.8748 25.1905 52.8748 24.6711C52.8748 24.1517 53.0812 23.6536 53.4484 23.2864C53.8157 22.9191 54.3138 22.7128 54.8332 22.7128C55.3526 22.7128 55.8507 22.9191 56.2179 23.2864C56.5852 23.6536 56.7915 24.1517 56.7915 24.6711C56.7915 25.1905 56.5852 25.6886 56.2179 26.0559C55.8507 26.4231 55.3526 26.6294 54.8332 26.6294Z" fill="#7CB342"/>
<path d="M58.75 13.7083L55.4874 18.6022M35.25 13.7083L37.8605 17.7856" stroke="#7CB342" stroke-width="2" stroke-linecap="round"/>
</svg>
