<svg width="114" height="60" viewBox="0 0 114 60" fill="none" xmlns="http://www.w3.org/2000/svg">
<g clip-path="url(#clip0_299_16)">
<path d="M56.8889 59.8222C88.3078 59.8222 113.778 46.4306 113.778 29.9111C113.778 13.3917 88.3078 0 56.8889 0C25.47 0 0 13.3917 0 29.9111C0 46.4306 25.47 59.8222 56.8889 59.8222Z" fill="url(#paint0_radial_299_16)"/>
<path d="M56.8888 57.6C87.0804 57.6 111.556 45.2033 111.556 29.9111C111.556 14.619 87.0804 2.22223 56.8888 2.22223C26.6973 2.22223 2.22217 14.619 2.22217 29.9111C2.22217 45.2033 26.6973 57.6 56.8888 57.6Z" fill="#6181B6"/>
<path d="M67.9554 38.8889L70.6665 24.9333C71.2887 21.7778 70.7554 19.4222 69.1554 17.9555C67.5998 16.5333 64.9331 15.8222 61.022 15.8222H56.3109L57.6443 8.88887C57.6887 8.6222 57.6443 8.35554 57.4665 8.13332C57.2887 7.91109 57.0665 7.8222 56.7998 7.8222H50.3109C49.8665 7.8222 49.5109 8.13332 49.422 8.53332L46.5331 23.3333C46.2665 21.6444 45.6443 20.2222 44.5776 19.0666C42.6665 16.8889 39.6887 15.7778 35.6443 15.7778H23.1554C22.7109 15.7778 22.3554 16.0889 22.2665 16.4889L16.4443 46.5333C16.3998 46.8 16.4443 47.0666 16.622 47.2889C16.7998 47.5111 17.022 47.6 17.2887 47.6H23.822C24.2665 47.6 24.622 47.2889 24.7109 46.8889L26.1331 39.6444H30.9776C33.5109 39.6444 35.6887 39.3778 37.3331 38.8444C39.0665 38.2666 40.622 37.3333 41.9998 36.0444C43.1109 35.0222 44.0443 33.8666 44.7554 32.6222L43.5998 38.6222C43.5554 38.8889 43.5998 39.1555 43.7776 39.3778C43.9554 39.6 44.1776 39.6889 44.4443 39.6889H50.9331C51.3776 39.6889 51.7331 39.3778 51.822 38.9778L55.022 22.5333H59.4665C61.3776 22.5333 61.9109 22.8889 62.0887 23.0666C62.222 23.2 62.4887 23.7333 62.1776 25.3778L59.5998 38.6666C59.5554 38.9333 59.5998 39.2 59.7776 39.4222C59.9554 39.6444 60.1776 39.7333 60.4443 39.7333H67.1109C67.5109 39.6 67.8665 39.2889 67.9554 38.8889ZM37.9109 27.3333C37.5109 29.4222 36.7554 30.9333 35.6443 31.7778C34.5331 32.6222 32.7109 33.0666 30.3109 33.0666H27.422L29.5109 22.3111H33.2443C35.9998 22.3111 37.1109 22.8889 37.5554 23.3778C38.1331 24.0889 38.2665 25.4666 37.9109 27.3333ZM95.6887 19.0666C93.7776 16.8889 90.7998 15.7778 86.7554 15.7778H74.1776C73.7331 15.7778 73.3776 16.0889 73.2887 16.4889L67.4665 46.4889C67.422 46.7555 67.4665 47.0222 67.6443 47.2444C67.822 47.4666 68.0443 47.5555 68.3109 47.5555H74.8443C75.2887 47.5555 75.6443 47.2444 75.7331 46.8444L77.1554 39.6H81.9998C84.5332 39.6 86.7109 39.3333 88.3554 38.8C90.0887 38.2222 91.6443 37.2889 93.022 36C94.1776 34.9333 95.1554 33.7333 95.8665 32.4444C96.5776 31.1555 97.1109 29.7333 97.422 28.1778C98.1776 24.3111 97.5998 21.2889 95.6887 19.0666ZM88.8887 27.3333C88.4887 29.4222 87.7332 30.9333 86.622 31.7778C85.5109 32.6222 83.6887 33.0666 81.2887 33.0666H78.3998L80.4887 22.3111H84.222C86.9776 22.3111 88.0887 22.8889 88.5332 23.3778C89.1554 24.0889 89.2887 25.4666 88.8887 27.3333Z" fill="white"/>
<path d="M33.2446 21.4222C35.7335 21.4222 37.3779 21.8667 38.2224 22.8C39.0668 23.7333 39.2446 25.2889 38.8002 27.5111C38.3557 29.8222 37.4668 31.5111 36.1779 32.4889C34.8891 33.4667 32.9335 33.9556 30.3113 33.9556H26.3557L28.8002 21.4222H33.2446ZM17.3335 46.6667H23.8668L25.4224 38.7111H31.0224C33.5113 38.7111 35.5113 38.4445 37.1113 37.9111C38.7113 37.3778 40.1335 36.5333 41.4668 35.2889C42.5779 34.2667 43.4668 33.1556 44.1335 31.9556C44.8002 30.7556 45.2891 29.4222 45.5557 27.9556C46.2668 24.4 45.7335 21.6445 44.0002 19.6445C42.2668 17.6445 39.5113 16.6667 35.7335 16.6667H23.1557L17.3335 46.6667ZM50.3557 8.71112H56.8446L55.2891 16.6667H61.0668C64.7113 16.6667 67.2002 17.2889 68.5779 18.5778C69.9557 19.8667 70.3557 21.9111 69.8224 24.7556L67.1113 38.7111H60.5335L63.1113 25.4222C63.4224 23.9111 63.2891 22.8889 62.8002 22.3556C62.3113 21.8222 61.2002 21.5111 59.5557 21.5111H54.3557L51.0224 38.7111H44.5335L50.3557 8.71112ZM84.2224 21.4222C86.7113 21.4222 88.3557 21.8667 89.2002 22.8C90.0446 23.7333 90.2224 25.2889 89.7779 27.5111C89.3335 29.8222 88.4446 31.5111 87.1557 32.4889C85.8668 33.4667 83.9113 33.9556 81.2891 33.9556H77.3335L79.7779 21.4222H84.2224ZM68.3113 46.6667H74.8446L76.4002 38.7111H82.0002C84.4891 38.7111 86.4891 38.4445 88.0891 37.9111C89.6891 37.3778 91.1113 36.5333 92.4446 35.2889C93.5557 34.2667 94.4446 33.1556 95.1113 31.9556C95.7779 30.7556 96.2668 29.4222 96.5335 27.9556C97.2446 24.4 96.7113 21.6445 94.9779 19.6445C93.2446 17.6445 90.4891 16.6667 86.7113 16.6667H74.1335L68.3113 46.6667Z" fill="#000004"/>
</g>
<defs>
<radialGradient id="paint0_radial_299_16" cx="0" cy="0" r="1" gradientUnits="userSpaceOnUse" gradientTransform="translate(34.1562 10.5189) scale(74.7091 74.7091)">
<stop stop-color="white"/>
<stop offset="0.5" stop-color="#4C6B97"/>
<stop offset="1" stop-color="#231F20"/>
</radialGradient>
<clipPath id="clip0_299_16">
<rect width="113.778" height="60" fill="white"/>
</clipPath>
</defs>
</svg>
