<svg width="61" height="60" viewBox="0 0 61 60" fill="none" xmlns="http://www.w3.org/2000/svg">
<path d="M30.5002 21.25C44.5374 21.25 55.9168 17.8921 55.9168 13.75C55.9168 9.60786 44.5374 6.25 30.5002 6.25C16.4629 6.25 5.0835 9.60786 5.0835 13.75C5.0835 17.8921 16.4629 21.25 30.5002 21.25Z" stroke="#C44700" stroke-width="4" stroke-linecap="round" stroke-linejoin="round"/>
<path d="M13.687 19.375C8.41308 20.75 5.0835 22.76 5.0835 25C5.0835 29.1425 16.4625 32.5 30.5002 32.5C44.5378 32.5 55.9168 29.1425 55.9168 25C55.9168 22.76 52.5885 20.75 47.3133 19.375" stroke="#C44700" stroke-width="4" stroke-linecap="round" stroke-linejoin="round"/>
<path d="M13.687 30.625C8.41308 32 5.0835 34.01 5.0835 36.25C5.0835 40.3925 16.4625 43.75 30.5002 43.75C44.5378 43.75 55.9168 40.3925 55.9168 36.25C55.9168 34.01 52.5885 32 47.3133 30.625" stroke="#C44700" stroke-width="4" stroke-linecap="round" stroke-linejoin="round"/>
<path d="M13.687 41.875C8.41308 43.25 5.0835 45.26 5.0835 47.5C5.0835 51.6425 16.4625 55 30.5002 55C44.5378 55 55.9168 51.6425 55.9168 47.5C55.9168 45.26 52.5885 43.25 47.3133 41.875C42.8323 43.0425 36.9458 43.75 30.5002 43.75C24.0545 43.75 18.168 43.0425 13.687 41.875Z" stroke="#C44700" stroke-width="4" stroke-linecap="round" stroke-linejoin="round"/>
</svg>
