<svg width="72" height="72" viewBox="0 0 72 72" fill="none" xmlns="http://www.w3.org/2000/svg">
<path d="M26.7845 55.1925C26.7845 55.1925 24.1031 56.7529 28.6954 57.2794C34.2596 57.915 37.103 57.8239 43.2332 56.6651C43.2332 56.6651 44.8481 57.6748 47.0992 58.5501C33.3523 64.4394 15.9885 58.2086 26.7845 55.1925ZM25.1038 47.506C25.1038 47.506 22.0955 49.7329 26.6917 50.2088C32.6357 50.8225 37.3286 50.8725 45.4534 49.3088C45.4534 49.3088 46.5744 50.4478 48.3401 51.07C31.7227 55.93 13.2142 51.4525 25.1038 47.506Z" fill="#0074BD"/>
<path d="M39.2636 34.4649C42.6527 38.3659 38.3749 41.8731 38.3749 41.8731C38.3749 41.8731 46.9749 37.4344 43.0262 31.8735C39.3367 26.6901 36.5085 24.1155 51.8209 15.2347C51.8209 15.2353 27.7847 21.2366 39.2636 34.4649Z" fill="#EA2D2E"/>
<path d="M57.4442 60.8788C57.4442 60.8788 59.4292 62.5157 55.2572 63.7807C47.3248 66.1837 22.235 66.9082 15.2668 63.8769C12.7631 62.7868 17.46 61.2754 18.9377 60.9564C20.4784 60.6229 21.3581 60.6836 21.3581 60.6836C18.572 58.7222 3.3508 64.5367 13.6277 66.2046C41.652 70.7473 64.7122 64.1587 57.4442 60.8788ZM28.0755 39.5404C28.0755 39.5404 15.3146 42.5717 23.5569 43.6736C27.0377 44.1394 33.9733 44.0325 40.4381 43.4902C45.72 43.0464 51.0204 42.0986 51.0204 42.0986C51.0204 42.0986 49.1597 42.8968 47.8119 43.8159C34.8508 47.2252 9.81842 45.6373 17.0257 42.1521C23.1187 39.2051 28.0755 39.5404 28.0755 39.5404ZM50.9675 52.3356C64.1419 45.4916 58.05 38.9143 53.798 39.8002C52.7585 40.0168 52.2922 40.2052 52.2922 40.2052C52.2922 40.2052 52.6792 39.5983 53.4172 39.3373C61.8283 36.3814 68.2959 48.0577 50.7043 52.6826C50.7043 52.6815 50.9062 52.4987 50.9675 52.3356Z" fill="#0074BD"/>
<path d="M43.0262 0.8927C43.0262 0.8927 50.3207 8.1917 36.1057 19.4119C24.7061 28.4153 33.5064 33.5475 36.1018 39.4138C29.4468 33.4103 24.5655 28.1245 27.8398 23.2054C32.648 15.9863 45.9686 12.4847 43.0262 0.8927Z" fill="#EA2D2E"/>
<path d="M29.3704 70.8868C42.0132 71.6951 61.4329 70.4368 61.8925 64.4541C61.8925 64.4541 61.0088 66.7221 51.4429 68.5215C40.6508 70.5533 27.3375 70.3164 19.444 69.0131C19.444 69.0137 21.0612 70.3524 29.3704 70.8868Z" fill="#0074BD"/>
</svg>
