<svg width="75" height="75" viewBox="0 0 75 75" fill="none" xmlns="http://www.w3.org/2000/svg">
<circle cx="37.5" cy="37.5" r="37.5" fill="#5F5F5F"/>
<path d="M38.8145 13.642C39.8539 13.642 40.7711 14.0191 41.5659 14.7731L43.8587 17.0659C44.6332 17.8404 45.0204 18.7677 45.0204 19.8479C45.0204 20.9484 44.6332 21.8655 43.8587 22.5992L34.9015 31.587L56.4232 31.587C57.483 31.587 58.3441 31.9691 59.0065 32.7334C59.6688 33.4977 60 34.4199 60 35.5V39.4131C60 40.4932 59.6688 41.4155 59.0065 42.1797C58.3441 42.944 57.483 43.3261 56.4232 43.3261H34.9015L43.8587 52.3139C44.6332 53.0476 45.0204 53.9647 45.0204 55.0653C45.0204 56.1658 44.6332 57.0829 43.8587 57.8166L41.5659 60.1094C40.7914 60.8839 39.8743 61.2711 38.8145 61.2711C37.7344 61.2711 36.8071 60.8839 36.0326 60.1094L16.1311 40.2079C15.377 39.4946 15 38.5775 15 37.4566C15 36.356 15.377 35.4287 16.1311 34.6746L36.0326 14.7731C36.8274 14.0191 37.7548 13.642 38.8145 13.642Z" fill="black"/>
</svg>
