<svg width="82" height="81" viewBox="0 0 82 81" fill="none" xmlns="http://www.w3.org/2000/svg">
<path d="M40.3143 0.0228882C19.7206 0.0228882 21.0065 8.95354 21.0065 8.95354L21.0293 18.206H40.6815V20.9838H13.2238C13.2238 20.9838 0.0458984 19.4893 0.0458984 40.2681C0.0458984 61.0477 11.5479 60.3107 11.5479 60.3107H18.4123V50.6682C18.4123 50.6682 18.0422 39.1662 29.7307 39.1662H49.2221C49.2221 39.1662 60.173 39.3432 60.173 28.5825V10.7905C60.173 10.7905 61.8362 0.0228882 40.3143 0.0228882ZM29.4781 6.24496C29.9425 6.24454 30.4024 6.3357 30.8316 6.51323C31.2607 6.69075 31.6506 6.95115 31.979 7.27953C32.3073 7.6079 32.5677 7.99781 32.7453 8.42693C32.9228 8.85606 33.014 9.31598 33.0135 9.78037C33.014 10.2448 32.9228 10.7047 32.7453 11.1338C32.5677 11.5629 32.3073 11.9528 31.979 12.2812C31.6506 12.6096 31.2607 12.87 30.8316 13.0475C30.4024 13.225 29.9425 13.3162 29.4781 13.3158C29.0137 13.3162 28.5538 13.225 28.1247 13.0475C27.6956 12.87 27.3057 12.6096 26.9773 12.2812C26.6489 11.9528 26.3885 11.5629 26.211 11.1338C26.0335 10.7047 25.9423 10.2448 25.9427 9.78037C25.9423 9.31598 26.0335 8.85606 26.211 8.42693C26.3885 7.99781 26.6489 7.6079 26.9773 7.27953C27.3057 6.95115 27.6956 6.69075 28.1247 6.51323C28.5538 6.3357 29.0137 6.24454 29.4781 6.24496Z" fill="url(#paint0_linear_299_12)"/>
<path d="M40.8995 80.7224C61.4932 80.7224 60.2074 71.7917 60.2074 71.7917L60.1845 62.5396H40.532V59.7618H67.9897C67.9897 59.7618 81.1676 61.2564 81.1676 40.4768C81.1676 19.6976 69.6656 20.4346 69.6656 20.4346H62.8013V30.0767C62.8013 30.0767 63.1713 41.5787 51.4829 41.5787H31.9914C31.9914 41.5787 21.0405 41.4018 21.0405 52.1628V69.9551C21.0405 69.9551 19.3777 80.7224 40.8992 80.7224H40.8995ZM51.7357 74.501C51.2713 74.5014 50.8114 74.4102 50.3823 74.2327C49.9532 74.0552 49.5633 73.7948 49.2349 73.4664C48.9065 73.138 48.6461 72.7481 48.4686 72.319C48.2911 71.8899 48.1999 71.4299 48.2003 70.9655C48.1999 70.5011 48.291 70.0412 48.4685 69.612C48.646 69.1828 48.9064 68.7929 49.2348 68.4645C49.5632 68.1361 49.9531 67.8757 50.3822 67.6981C50.8114 67.5206 51.2713 67.4294 51.7357 67.4298C52.2001 67.4294 52.66 67.5206 53.0892 67.6981C53.5183 67.8756 53.9082 68.136 54.2366 68.4644C54.565 68.7928 54.8254 69.1827 55.0029 69.6118C55.1804 70.0409 55.2716 70.5008 55.2711 70.9652C55.2716 71.4296 55.1804 71.8895 55.0029 72.3187C54.8254 72.7478 54.565 73.1377 54.2366 73.4661C53.9082 73.7945 53.5183 74.0549 53.0892 74.2324C52.66 74.4099 52.2001 74.5014 51.7357 74.501Z" fill="url(#paint1_linear_299_12)"/>
<defs>
<linearGradient id="paint0_linear_299_12" x1="779.619" y1="725.867" x2="4799.75" y2="4705.89" gradientUnits="userSpaceOnUse">
<stop stop-color="#387EB8"/>
<stop offset="1" stop-color="#366994"/>
</linearGradient>
<linearGradient id="paint1_linear_299_12" x1="1171.69" y1="1261.16" x2="5488.85" y2="5342.31" gradientUnits="userSpaceOnUse">
<stop stop-color="#FFE052"/>
<stop offset="1" stop-color="#FFC331"/>
</linearGradient>
</defs>
</svg>
