<svg width="75" height="75" viewBox="0 0 75 75" fill="none" xmlns="http://www.w3.org/2000/svg">
<circle cx="37.5" cy="37.5" r="37.5" fill="#505050"/>
<path d="M35.1855 61.271C34.1461 61.271 33.2289 60.894 32.4341 60.1399L30.1413 57.8471C29.3668 57.0727 28.9796 56.1454 28.9796 55.0652C28.9796 53.9647 29.3668 53.0475 30.1413 52.3138L39.0985 43.3261H17.5768C16.517 43.3261 15.6559 42.9439 14.9935 42.1797C14.3312 41.4154 14 40.4932 14 39.413V35.5C14 34.4198 14.3312 33.4976 14.9935 32.7333C15.6559 31.9691 16.517 31.5869 17.5768 31.5869L39.0985 31.5869L30.1413 22.5992C29.3668 21.8655 28.9796 20.9484 28.9796 19.8478C28.9796 18.7473 29.3668 17.8301 30.1413 17.0965L32.4341 14.8037C33.2086 14.0292 34.1257 13.642 35.1855 13.642C36.2656 13.642 37.1929 14.0292 37.9674 14.8037L57.8689 34.7051C58.623 35.4185 59 36.3356 59 37.4565C59 38.557 58.623 39.4844 57.8689 40.2384L37.9674 60.1399C37.1726 60.894 36.2452 61.271 35.1855 61.271Z" fill="black"/>
</svg>
