<svg width="46" height="47" viewBox="0 0 46 47" fill="none" xmlns="http://www.w3.org/2000/svg">
<path d="M36.9341 10.4377C34.3849 9.22351 31.6249 8.34226 28.7499 7.8331C28.7247 7.83227 28.6996 7.83711 28.6764 7.84726C28.6533 7.85741 28.6325 7.87263 28.6157 7.89185C28.2707 8.5381 27.8682 9.38018 27.5999 10.0264C24.5505 9.55643 21.4493 9.55643 18.3999 10.0264C18.1316 9.3606 17.7291 8.5381 17.3649 7.89185C17.3457 7.85268 17.2882 7.8331 17.2307 7.8331C14.3557 8.34226 11.6149 9.22351 9.04657 10.4377C9.0274 10.4377 9.00823 10.4573 8.98907 10.4768C3.77573 18.4473 2.33823 26.2023 3.0474 33.8789C3.0474 33.9181 3.06657 33.9573 3.1049 33.9768C6.5549 36.5618 9.87073 38.1285 13.1482 39.1664C13.2057 39.186 13.2632 39.1664 13.2824 39.1273C14.0491 38.0502 14.7391 36.9143 15.3332 35.7198C15.3716 35.6414 15.3332 35.5631 15.2566 35.5435C14.1641 35.1127 13.1291 34.6035 12.1132 34.016C12.0366 33.9769 12.0366 33.8593 12.0941 33.8006C12.3049 33.6439 12.5157 33.4677 12.7266 33.311C12.7649 33.2718 12.8224 33.2718 12.8607 33.2914C19.4541 36.366 26.5649 36.366 33.0816 33.2914C33.1199 33.2718 33.1774 33.2718 33.2157 33.311C33.4266 33.4873 33.6374 33.6439 33.8482 33.8202C33.9249 33.8789 33.9249 33.9964 33.8291 34.0356C32.8324 34.6427 31.7782 35.1323 30.6857 35.5631C30.6091 35.5827 30.5899 35.6806 30.6091 35.7393C31.2224 36.9339 31.9124 38.0698 32.6599 39.1468C32.7174 39.1664 32.7749 39.186 32.8324 39.1664C36.1291 38.1285 39.4449 36.5618 42.8949 33.9768C42.9332 33.9573 42.9524 33.9181 42.9524 33.8789C43.7957 25.0077 41.5532 17.3114 37.0107 10.4768C36.9916 10.4573 36.9724 10.4377 36.9341 10.4377ZM16.3299 29.1985C14.3557 29.1985 12.7074 27.3381 12.7074 25.0468C12.7074 22.7556 14.3174 20.8952 16.3299 20.8952C18.3616 20.8952 19.9716 22.7752 19.9524 25.0468C19.9524 27.3381 18.3424 29.1985 16.3299 29.1985ZM29.6891 29.1985C27.7149 29.1985 26.0666 27.3381 26.0666 25.0468C26.0666 22.7556 27.6766 20.8952 29.6891 20.8952C31.7207 20.8952 33.3307 22.7752 33.3116 25.0468C33.3116 27.3381 31.7207 29.1985 29.6891 29.1985Z" fill="white"/>
</svg>
