<svg width="38" height="38" viewBox="0 0 38 38" fill="none" xmlns="http://www.w3.org/2000/svg">
<path d="M35.91 0H2.09C1.5357 0 1.0041 0.220196 0.612147 0.612147C0.220196 1.0041 0 1.5357 0 2.09V35.91C0 36.4643 0.220196 36.9959 0.612147 37.3879C1.0041 37.7798 1.5357 38 2.09 38H20.292V23.275H15.352V17.575H20.292V13.3C20.1897 12.2963 20.3082 11.2824 20.6392 10.3294C20.9702 9.3764 21.5057 8.50734 22.2081 7.78318C22.9105 7.05903 23.7629 6.49732 24.7054 6.13745C25.6479 5.77759 26.6577 5.62828 27.664 5.7C29.1428 5.6909 30.6209 5.76703 32.091 5.928V11.058H29.07C26.676 11.058 26.22 12.198 26.22 13.851V17.518H31.92L31.179 23.218H26.22V38H35.91C36.1845 38 36.4562 37.9459 36.7098 37.8409C36.9634 37.7359 37.1938 37.5819 37.3879 37.3879C37.5819 37.1938 37.7359 36.9634 37.8409 36.7098C37.9459 36.4562 38 36.1845 38 35.91V2.09C38 1.81554 37.9459 1.54376 37.8409 1.29019C37.7359 1.03662 37.5819 0.806221 37.3879 0.612147C37.1938 0.418073 36.9634 0.264124 36.7098 0.159092C36.4562 0.0540596 36.1845 0 35.91 0Z" fill="white"/>
</svg>
