<svg width="43" height="43" viewBox="0 0 43 43" fill="none" xmlns="http://www.w3.org/2000/svg">
<path d="M21.4999 3.5835C19.1471 3.5835 16.8173 4.04692 14.6435 4.94732C12.4698 5.84772 10.4946 7.16745 8.83092 8.83117C5.4709 12.1912 3.58325 16.7484 3.58325 21.5002C3.58325 29.4193 8.72534 36.1381 15.8383 38.521C16.7341 38.6643 17.0208 38.1089 17.0208 37.6252V34.5972C12.0578 35.6722 11.0008 32.1964 11.0008 32.1964C10.1766 30.1181 9.012 29.5627 9.012 29.5627C7.38159 28.4518 9.13742 28.4877 9.13742 28.4877C10.9291 28.6131 11.8787 30.3331 11.8787 30.3331C13.4374 33.0564 16.0712 32.2502 17.0924 31.8202C17.2537 30.6556 17.7195 29.8672 18.2212 29.4193C14.2437 28.9714 10.0691 27.4306 10.0691 20.6043C10.0691 18.6156 10.7499 17.021 11.9145 15.7489C11.7353 15.301 11.1083 13.4377 12.0937 11.0189C12.0937 11.0189 13.5987 10.5352 17.0208 12.8464C18.4362 12.4522 19.977 12.2552 21.4999 12.2552C23.0228 12.2552 24.5637 12.4522 25.9791 12.8464C29.4012 10.5352 30.9062 11.0189 30.9062 11.0189C31.8916 13.4377 31.2645 15.301 31.0853 15.7489C32.2499 17.021 32.9307 18.6156 32.9307 20.6043C32.9307 27.4485 28.7383 28.9535 24.7428 29.4014C25.3878 29.9568 25.9791 31.0497 25.9791 32.716V37.6252C25.9791 38.1089 26.2658 38.6822 27.1795 38.521C34.2924 36.1202 39.4166 29.4193 39.4166 21.5002C39.4166 19.1473 38.9532 16.8175 38.0528 14.6438C37.1524 12.47 35.8326 10.4949 34.1689 8.83117C32.5052 7.16745 30.5301 5.84772 28.3563 4.94732C26.1826 4.04692 23.8528 3.5835 21.4999 3.5835Z" fill="white"/>
</svg>
