<svg width="42" height="42" viewBox="0 0 42 42" fill="none" xmlns="http://www.w3.org/2000/svg">
<path d="M5.362 13.1425C6.81802 10.2432 9.05165 7.8059 11.8133 6.10307C14.5749 4.40025 17.7556 3.49898 21 3.5C25.7163 3.5 29.6783 5.23425 32.7075 8.05875L27.6903 13.0778C25.8755 11.3435 23.569 10.4598 21 10.4598C16.4413 10.4598 12.5825 13.5398 11.2088 17.675C10.8588 18.725 10.6593 19.845 10.6593 21C10.6593 22.155 10.8588 23.275 11.2088 24.325C12.5843 28.462 16.4413 31.5403 21 31.5403C23.3538 31.5403 25.3575 30.919 26.9255 29.869C27.8345 29.2705 28.6127 28.4939 29.2131 27.5861C29.8135 26.6783 30.2235 25.6582 30.4185 24.5875H21V17.8185H37.4815C37.688 18.963 37.8 20.1565 37.8 21.3973C37.8 26.7278 35.8925 31.2148 32.5815 34.2598C29.687 36.9338 25.725 38.5 21 38.5C18.7016 38.5009 16.4256 38.0489 14.302 37.1698C12.1783 36.2906 10.2488 35.0016 8.62358 33.3764C6.99837 31.7512 5.70937 29.8217 4.83024 27.6981C3.9511 25.5744 3.49908 23.2984 3.5 21C3.5 18.1755 4.1755 15.505 5.362 13.1425Z" fill="white"/>
</svg>
