<svg width="21" height="20" viewBox="0 0 21 20" fill="none" xmlns="http://www.w3.org/2000/svg">
<path d="M5.87003 0H14.305C17.5183 0 20.1291 2.6 20.1291 5.8V14.2C20.1291 15.7383 19.5155 17.2135 18.4233 18.3012C17.331 19.3889 15.8496 20 14.305 20H5.87003C2.65671 20 0.0458984 17.4 0.0458984 14.2V5.8C0.0458984 4.26174 0.65951 2.78649 1.75175 1.69878C2.84398 0.61107 4.32537 0 5.87003 0ZM5.6692 2C4.71044 2 3.79096 2.37928 3.11302 3.05442C2.43508 3.72955 2.05422 4.64522 2.05422 5.6V14.4C2.05422 16.39 3.67092 18 5.6692 18H14.5058C15.4646 18 16.384 17.6207 17.062 16.9456C17.7399 16.2705 18.1208 15.3548 18.1208 14.4V5.6C18.1208 3.61 16.5041 2 14.5058 2H5.6692ZM15.3593 3.5C15.6922 3.5 16.0115 3.6317 16.2469 3.86612C16.4823 4.10054 16.6145 4.41848 16.6145 4.75C16.6145 5.08152 16.4823 5.39946 16.2469 5.63388C16.0115 5.8683 15.6922 6 15.3593 6C15.0264 6 14.7072 5.8683 14.4718 5.63388C14.2364 5.39946 14.1041 5.08152 14.1041 4.75C14.1041 4.41848 14.2364 4.10054 14.4718 3.86612C14.7072 3.6317 15.0264 3.5 15.3593 3.5ZM10.0875 5C11.4191 5 12.6962 5.52678 13.6377 6.46447C14.5793 7.40215 15.1083 8.67392 15.1083 10C15.1083 11.3261 14.5793 12.5979 13.6377 13.5355C12.6962 14.4732 11.4191 15 10.0875 15C8.7559 15 7.47884 14.4732 6.53726 13.5355C5.59567 12.5979 5.0667 11.3261 5.0667 10C5.0667 8.67392 5.59567 7.40215 6.53726 6.46447C7.47884 5.52678 8.7559 5 10.0875 5ZM10.0875 7C9.28854 7 8.5223 7.31607 7.95735 7.87868C7.3924 8.44129 7.07502 9.20435 7.07502 10C7.07502 10.7956 7.3924 11.5587 7.95735 12.1213C8.5223 12.6839 9.28854 13 10.0875 13C10.8865 13 11.6527 12.6839 12.2176 12.1213C12.7826 11.5587 13.1 10.7956 13.1 10C13.1 9.20435 12.7826 8.44129 12.2176 7.87868C11.6527 7.31607 10.8865 7 10.0875 7Z" fill="black"/>
</svg>
