<svg width="10" height="7" viewBox="0 0 10 7" fill="none" xmlns="http://www.w3.org/2000/svg">
<path d="M9.77309 0.96975C9.63244 0.829147 9.44171 0.75016 9.24284 0.75016C9.04396 0.75016 8.85323 0.829147 8.71259 0.96975L5.00009 4.68225L1.28759 0.96975C1.14613 0.833132 0.956682 0.757536 0.760035 0.759245C0.563387 0.760954 0.375277 0.83983 0.236221 0.978886C0.0971652 1.11794 0.0182894 1.30605 0.0165806 1.5027C0.0148718 1.69935 0.0904675 1.8888 0.227086 2.03025L4.46984 6.273C4.61048 6.4136 4.80121 6.49259 5.00009 6.49259C5.19896 6.49259 5.38969 6.4136 5.53034 6.273L9.77309 2.03025C9.91369 1.8896 9.99268 1.69887 9.99268 1.5C9.99268 1.30113 9.91369 1.1104 9.77309 0.96975Z" fill="white"/>
</svg>
