<svg width="22" height="22" viewBox="0 0 22 22" fill="none" xmlns="http://www.w3.org/2000/svg">
<path fill-rule="evenodd" clip-rule="evenodd" d="M3.04592 0H2.96131C2.5738 0 2.24044 1.26077e-08 1.946 0.0693793C1.49019 0.178296 1.07343 0.411278 0.741902 0.742509C0.410372 1.07374 0.177015 1.49029 0.067687 1.946C-6.30385e-08 2.24044 0 2.57211 0 2.96131V7.19175C0 7.57926 1.26077e-08 7.91262 0.0693793 8.20706C0.178296 8.66287 0.411278 9.07963 0.742509 9.41116C1.07374 9.74269 1.49029 9.97605 1.946 10.0854C2.24044 10.1531 2.57211 10.1531 2.96131 10.1531H7.19175C7.57926 10.1531 7.91262 10.1531 8.20706 10.0837C8.66287 9.97477 9.07963 9.74179 9.41116 9.41055C9.74269 9.07932 9.97605 8.66277 10.0854 8.20706C10.1531 7.91262 10.1531 7.58096 10.1531 7.19175V2.96131C10.1531 2.5738 10.1531 2.24044 10.0837 1.946C9.97477 1.49019 9.74179 1.07343 9.41055 0.741902C9.07932 0.410372 8.66277 0.177015 8.20706 0.067687C7.91262 -6.30385e-08 7.58096 0 7.19175 0H3.04592ZM2.34028 1.71587C2.41304 1.69895 2.52642 1.69218 3.04592 1.69218H7.10714C7.62834 1.69218 7.74002 1.69725 7.81278 1.71587C7.96479 1.75222 8.10376 1.82996 8.21428 1.94048C8.32479 2.051 8.40254 2.18997 8.43889 2.34197C8.45581 2.41305 8.46089 2.52473 8.46089 3.04592V7.10714C8.46089 7.62834 8.45581 7.74002 8.4372 7.81278C8.40085 7.96479 8.3231 8.10376 8.21258 8.21428C8.10207 8.32479 7.9631 8.40254 7.81109 8.43889C7.74171 8.45412 7.63003 8.46089 7.10714 8.46089H3.04592C2.52473 8.46089 2.41304 8.45581 2.34028 8.4372C2.18827 8.40085 2.0493 8.3231 1.93879 8.21258C1.82827 8.10207 1.75053 7.9631 1.71418 7.81109C1.69895 7.74171 1.69218 7.63003 1.69218 7.10714V3.04592C1.69218 2.52473 1.69725 2.41304 1.71587 2.34028C1.75222 2.18827 1.82996 2.0493 1.94048 1.93879C2.051 1.82827 2.18997 1.75053 2.34197 1.71418L2.34028 1.71587ZM14.8912 0H14.8066C14.419 0 14.0857 1.26077e-08 13.7912 0.0693793C13.3354 0.178296 12.9187 0.411278 12.5871 0.742509C12.2556 1.07374 12.0223 1.49029 11.9129 1.946C11.8452 2.24044 11.8452 2.57211 11.8452 2.96131V7.19175C11.8452 7.57926 11.8452 7.91262 11.9146 8.20706C12.0235 8.66287 12.2565 9.07963 12.5878 9.41116C12.919 9.74269 13.3355 9.97605 13.7912 10.0854C14.0857 10.1531 14.4174 10.1531 14.8066 10.1531H19.037C19.4245 10.1531 19.7579 10.1531 20.0523 10.0837C20.5081 9.97477 20.9249 9.74179 21.2564 9.41055C21.5879 9.07932 21.8213 8.66277 21.9306 8.20706C21.9983 7.91262 21.9983 7.58096 21.9983 7.19175V2.96131C21.9983 2.5738 21.9983 2.24044 21.9289 1.946C21.82 1.49019 21.587 1.07343 21.2558 0.741902C20.9246 0.410372 20.508 0.177015 20.0523 0.067687C19.7579 -6.30385e-08 19.4262 0 19.037 0H14.8912ZM14.1855 1.71587C14.2583 1.69895 14.3717 1.69218 14.8912 1.69218H18.9524C19.4736 1.69218 19.5853 1.69725 19.658 1.71587C19.81 1.75222 19.949 1.82996 20.0595 1.94048C20.17 2.051 20.2478 2.18997 20.2841 2.34197C20.3011 2.41305 20.3061 2.52473 20.3061 3.04592V7.10714C20.3061 7.62834 20.2994 7.74002 20.2824 7.81278C20.2461 7.96479 20.1683 8.10376 20.0578 8.21428C19.9473 8.32479 19.8083 8.40254 19.6563 8.43889C19.5853 8.45581 19.4736 8.46089 18.9524 8.46089H14.8912C14.37 8.46089 14.2583 8.45581 14.1855 8.4372C14.0335 8.40085 13.8945 8.3231 13.784 8.21258C13.6735 8.10207 13.5958 7.9631 13.5594 7.81109C13.5442 7.74171 13.5374 7.63003 13.5374 7.10714V3.04592C13.5374 2.52473 13.5425 2.41304 13.5611 2.34028C13.5975 2.18827 13.6752 2.0493 13.7857 1.93879C13.8962 1.82827 14.0352 1.75053 14.1872 1.71418L14.1855 1.71587ZM2.96131 11.8452H7.19175C7.57926 11.8452 7.91262 11.8452 8.20706 11.9146C8.66287 12.0235 9.07963 12.2565 9.41116 12.5878C9.74269 12.919 9.97605 13.3355 10.0854 13.7912C10.1531 14.0857 10.1531 14.4174 10.1531 14.8066V19.037C10.1531 19.4245 10.1531 19.7579 10.0837 20.0523C9.97477 20.5081 9.74179 20.9249 9.41055 21.2564C9.07932 21.5879 8.66277 21.8213 8.20706 21.9306C7.91262 21.9983 7.58096 21.9983 7.19175 21.9983H2.96131C2.5738 21.9983 2.24044 21.9983 1.946 21.9289C1.49019 21.82 1.07343 21.587 0.741902 21.2558C0.410372 20.9246 0.177015 20.508 0.067687 20.0523C-6.30385e-08 19.7579 0 19.4262 0 19.037V14.8066C0 14.419 1.26077e-08 14.0857 0.0693793 13.7912C0.178296 13.3354 0.411278 12.9187 0.742509 12.5871C1.07374 12.2556 1.49029 12.0223 1.946 11.9129C2.24044 11.8452 2.57211 11.8452 2.96131 11.8452ZM3.04592 13.5374C2.52473 13.5374 2.41304 13.5425 2.34028 13.5611C2.18827 13.5975 2.0493 13.6752 1.93879 13.7857C1.82827 13.8962 1.75053 14.0352 1.71418 14.1872C1.69895 14.2566 1.69218 14.3683 1.69218 14.8912V18.9524C1.69218 19.4736 1.69725 19.5853 1.71587 19.658C1.75222 19.81 1.82996 19.949 1.94048 20.0595C2.051 20.17 2.18997 20.2478 2.34197 20.2841C2.41305 20.3011 2.52473 20.3061 3.04592 20.3061H7.10714C7.62834 20.3061 7.74002 20.2994 7.81278 20.2824C7.96479 20.2461 8.10376 20.1683 8.21428 20.0578C8.32479 19.9473 8.40254 19.8083 8.43889 19.6563C8.45581 19.5853 8.46089 19.4736 8.46089 18.9524V14.8912C8.46089 14.37 8.45581 14.2583 8.4372 14.1855C8.40085 14.0335 8.3231 13.8945 8.21258 13.784C8.10207 13.6735 7.9631 13.5958 7.81109 13.5594C7.74171 13.5442 7.63003 13.5374 7.10714 13.5374H3.04592ZM14.8912 11.8452H14.8066C14.419 11.8452 14.0857 11.8452 13.7912 11.9146C13.3354 12.0235 12.9187 12.2565 12.5871 12.5878C12.2556 12.919 12.0223 13.3355 11.9129 13.7912C11.8452 14.0857 11.8452 14.4174 11.8452 14.8066V19.037C11.8452 19.4245 11.8452 19.7579 11.9146 20.0523C12.0235 20.5081 12.2565 20.9249 12.5878 21.2564C12.919 21.5879 13.3355 21.8213 13.7912 21.9306C14.0857 22 14.419 22 14.8066 22H19.037C19.4245 22 19.7579 22 20.0523 21.9306C20.5078 21.8214 20.9242 21.5883 21.2554 21.2571C21.5866 20.9259 21.8197 20.5095 21.9289 20.054C21.9983 19.7596 21.9983 19.4262 21.9983 19.0387V14.8066C21.9983 14.419 21.9983 14.0857 21.9289 13.7912C21.82 13.3354 21.587 12.9187 21.2558 12.5871C20.9246 12.2556 20.508 12.0223 20.0523 11.9129C19.7579 11.8452 19.4262 11.8452 19.037 11.8452H14.8912ZM14.1855 13.5611C14.2583 13.5442 14.3717 13.5374 14.8912 13.5374H18.9524C19.4736 13.5374 19.5853 13.5425 19.658 13.5611C19.81 13.5975 19.949 13.6752 20.0595 13.7857C20.17 13.8962 20.2478 14.0352 20.2841 14.1872C20.3011 14.2583 20.3061 14.37 20.3061 14.8912V18.9524C20.3061 19.4736 20.2994 19.5853 20.2824 19.658C20.2461 19.81 20.1683 19.949 20.0578 20.0595C19.9473 20.17 19.8083 20.2478 19.6563 20.2841C19.5853 20.3011 19.4736 20.3061 18.9524 20.3061H14.8912C14.37 20.3061 14.2583 20.2994 14.1855 20.2824C14.0335 20.2461 13.8945 20.1683 13.784 20.0578C13.6735 19.9473 13.5958 19.8083 13.5594 19.6563C13.5442 19.587 13.5374 19.4753 13.5374 18.9524V14.8912C13.5374 14.37 13.5425 14.2583 13.5611 14.1855C13.5975 14.0335 13.6752 13.8945 13.7857 13.784C13.8962 13.6735 14.0352 13.5958 14.1872 13.5594L14.1855 13.5611Z" fill="white"/>
</svg>
