<svg width="20" height="19" viewBox="0 0 20 19" fill="none" xmlns="http://www.w3.org/2000/svg">
<path fill-rule="evenodd" clip-rule="evenodd" d="M2.76923 0.856445H2.69231C2.34 0.856445 2.03692 0.856445 1.76923 0.913079C1.35483 1.00199 0.975923 1.19217 0.674509 1.46255C0.373094 1.73294 0.160935 2.07296 0.0615384 2.44496C-6.30434e-08 2.68531 0 2.95605 0 3.27375V6.72705C0 7.04337 5.73122e-09 7.31549 0.0630769 7.55584C0.1621 7.92792 0.373918 8.26812 0.675061 8.53874C0.976204 8.80937 1.35491 8.99986 1.76923 9.0891C2.03692 9.14435 2.33846 9.14435 2.69231 9.14435H6.53846C6.89077 9.14435 7.19385 9.14435 7.46154 9.08772C7.87595 8.99881 8.25485 8.80863 8.55626 8.53825C8.85767 8.26786 9.06984 7.92784 9.16923 7.55584C9.23077 7.31549 9.23077 7.04475 9.23077 6.72705V3.27375C9.23077 2.95743 9.23077 2.68531 9.16769 2.44496C9.06867 2.07288 8.85685 1.73268 8.55571 1.46206C8.25457 1.19143 7.87586 1.00094 7.46154 0.911698C7.19385 0.856445 6.89231 0.856445 6.53846 0.856445H2.76923ZM2.12769 2.2571C2.19385 2.24329 2.29692 2.23776 2.76923 2.23776H6.46154C6.93538 2.23776 7.03692 2.24191 7.10308 2.2571C7.24128 2.28677 7.36762 2.35024 7.4681 2.44045C7.56858 2.53067 7.63926 2.64411 7.67231 2.76819C7.68769 2.82621 7.69231 2.91737 7.69231 3.34282V6.65798C7.69231 7.08343 7.68769 7.1746 7.67077 7.23399C7.63772 7.35808 7.56704 7.47152 7.46656 7.56173C7.36608 7.65194 7.23974 7.71541 7.10154 7.74508C7.03846 7.75751 6.93692 7.76304 6.46154 7.76304H2.76923C2.29538 7.76304 2.19385 7.75889 2.12769 7.7437C1.98949 7.71403 1.86315 7.65056 1.76267 7.56035C1.66219 7.47013 1.59151 7.35669 1.55846 7.23261C1.54462 7.17598 1.53846 7.08481 1.53846 6.65798V3.34282C1.53846 2.91737 1.54308 2.8262 1.56 2.76681C1.59305 2.64272 1.66373 2.52928 1.76421 2.43907C1.86469 2.34886 1.99103 2.28539 2.12923 2.25572L2.12769 2.2571ZM13.5385 0.856445H13.4615C13.1092 0.856445 12.8062 0.856445 12.5385 0.913079C12.1241 1.00199 11.7452 1.19217 11.4437 1.46255C11.1423 1.73294 10.9302 2.07296 10.8308 2.44496C10.7692 2.68531 10.7692 2.95605 10.7692 3.27375V6.72705C10.7692 7.04337 10.7692 7.31549 10.8323 7.55584C10.9313 7.92792 11.1431 8.26812 11.4443 8.53874C11.7454 8.80937 12.1241 8.99986 12.5385 9.0891C12.8062 9.14435 13.1077 9.14435 13.4615 9.14435H17.3077C17.66 9.14435 17.9631 9.14435 18.2308 9.08772C18.6452 8.99881 19.0241 8.80863 19.3255 8.53825C19.6269 8.26786 19.8391 7.92784 19.9385 7.55584C20 7.31549 20 7.04475 20 6.72705V3.27375C20 2.95743 20 2.68531 19.9369 2.44496C19.8379 2.07288 19.6261 1.73268 19.3249 1.46206C19.0238 1.19143 18.6451 1.00094 18.2308 0.911698C17.9631 0.856445 17.6615 0.856445 17.3077 0.856445H13.5385ZM12.8969 2.2571C12.9631 2.24329 13.0662 2.23776 13.5385 2.23776H17.2308C17.7046 2.23776 17.8062 2.24191 17.8723 2.2571C18.0105 2.28677 18.1369 2.35024 18.2373 2.44045C18.3378 2.53067 18.4085 2.64411 18.4415 2.76819C18.4569 2.82621 18.4615 2.91737 18.4615 3.34282V6.65798C18.4615 7.08343 18.4554 7.1746 18.44 7.23399C18.407 7.35808 18.3363 7.47152 18.2358 7.56173C18.1353 7.65194 18.009 7.71541 17.8708 7.74508C17.8062 7.75889 17.7046 7.76304 17.2308 7.76304H13.5385C13.0646 7.76304 12.9631 7.75889 12.8969 7.7437C12.7587 7.71403 12.6324 7.65056 12.5319 7.56035C12.4314 7.47013 12.3607 7.35669 12.3277 7.23261C12.3138 7.17598 12.3077 7.08481 12.3077 6.65798V3.34282C12.3077 2.91737 12.3123 2.8262 12.3292 2.76681C12.3623 2.64272 12.433 2.52928 12.5334 2.43907C12.6339 2.34886 12.7603 2.28539 12.8985 2.25572L12.8969 2.2571ZM2.69231 10.5257H6.53846C6.89077 10.5257 7.19385 10.5257 7.46154 10.5823C7.87595 10.6712 8.25485 10.8614 8.55626 11.1318C8.85767 11.4022 9.06984 11.7422 9.16923 12.1142C9.23077 12.3545 9.23077 12.6253 9.23077 12.943V16.3963C9.23077 16.7126 9.23077 16.9847 9.16769 17.2251C9.06867 17.5971 8.85685 17.9373 8.55571 18.208C8.25457 18.4786 7.87586 18.6691 7.46154 18.7583C7.19385 18.8136 6.89231 18.8136 6.53846 18.8136H2.69231C2.34 18.8136 2.03692 18.8136 1.76923 18.7569C1.35483 18.668 0.975923 18.4779 0.674509 18.2075C0.373094 17.9371 0.160935 17.5971 0.0615384 17.2251C-6.30434e-08 16.9847 0 16.714 0 16.3963V12.943C0 12.6267 5.73122e-09 12.3545 0.0630769 12.1142C0.1621 11.7421 0.373918 11.4019 0.675061 11.1313C0.976204 10.8607 1.35491 10.6702 1.76923 10.5809C2.03692 10.5257 2.33846 10.5257 2.69231 10.5257ZM2.76923 11.907C2.29538 11.907 2.19385 11.9111 2.12769 11.9263C1.98949 11.956 1.86315 12.0195 1.76267 12.1097C1.66219 12.1999 1.59151 12.3133 1.55846 12.4374C1.54462 12.4941 1.53846 12.5852 1.53846 13.012V16.3272C1.53846 16.7527 1.54308 16.8438 1.56 16.9032C1.59305 17.0273 1.66373 17.1407 1.76421 17.231C1.86469 17.3212 1.99103 17.3846 2.12923 17.4143C2.19385 17.4281 2.29538 17.4323 2.76923 17.4323H6.46154C6.93538 17.4323 7.03692 17.4267 7.10308 17.4129C7.24128 17.3833 7.36762 17.3198 7.4681 17.2296C7.56858 17.1394 7.63926 17.0259 7.67231 16.9018C7.68769 16.8438 7.69231 16.7527 7.69231 16.3272V13.012C7.69231 12.5866 7.68769 12.4954 7.67077 12.436C7.63772 12.312 7.56704 12.1985 7.46656 12.1083C7.36608 12.0181 7.23974 11.9546 7.10154 11.9249C7.03846 11.9125 6.93692 11.907 6.46154 11.907H2.76923ZM13.5385 10.5257H13.4615C13.1092 10.5257 12.8062 10.5257 12.5385 10.5823C12.1241 10.6712 11.7452 10.8614 11.4437 11.1318C11.1423 11.4022 10.9302 11.7422 10.8308 12.1142C10.7692 12.3545 10.7692 12.6253 10.7692 12.943V16.3963C10.7692 16.7126 10.7692 16.9847 10.8323 17.2251C10.9313 17.5971 11.1431 17.9373 11.4443 18.208C11.7454 18.4786 12.1241 18.6691 12.5385 18.7583C12.8062 18.815 13.1092 18.815 13.4615 18.815H17.3077C17.66 18.815 17.9631 18.815 18.2308 18.7583C18.6449 18.6692 19.0235 18.4789 19.3246 18.2085C19.6257 17.9382 19.8376 17.5983 19.9369 17.2264C20 16.9861 20 16.714 20 16.3977V12.943C20 12.6267 20 12.3545 19.9369 12.1142C19.8379 11.7421 19.6261 11.4019 19.3249 11.1313C19.0238 10.8607 18.6451 10.6702 18.2308 10.5809C17.9631 10.5257 17.6615 10.5257 17.3077 10.5257H13.5385ZM12.8969 11.9263C12.9631 11.9125 13.0662 11.907 13.5385 11.907H17.2308C17.7046 11.907 17.8062 11.9111 17.8723 11.9263C18.0105 11.956 18.1369 12.0195 18.2373 12.1097C18.3378 12.1999 18.4085 12.3133 18.4415 12.4374C18.4569 12.4954 18.4615 12.5866 18.4615 13.012V16.3272C18.4615 16.7527 18.4554 16.8438 18.44 16.9032C18.407 17.0273 18.3363 17.1407 18.2358 17.231C18.1353 17.3212 18.009 17.3846 17.8708 17.4143C17.8062 17.4281 17.7046 17.4323 17.2308 17.4323H13.5385C13.0646 17.4323 12.9631 17.4267 12.8969 17.4129C12.7587 17.3833 12.6324 17.3198 12.5319 17.2296C12.4314 17.1394 12.3607 17.0259 12.3277 16.9018C12.3138 16.8452 12.3077 16.754 12.3077 16.3272V13.012C12.3077 12.5866 12.3123 12.4954 12.3292 12.436C12.3623 12.312 12.433 12.1985 12.5334 12.1083C12.6339 12.0181 12.7603 11.9546 12.8985 11.9249L12.8969 11.9263Z" fill="url(#paint0_angular_219_217)"/>
<defs>
<radialGradient id="paint0_angular_219_217" cx="0" cy="0" r="1" gradientUnits="userSpaceOnUse" gradientTransform="translate(10 9.8357) rotate(90) scale(8.97926 10)">
<stop stop-color="#091DD2"/>
<stop offset="0.315625" stop-color="#09C9B2"/>
<stop offset="0.675" stop-color="#9D09D2"/>
<stop offset="1" stop-color="#3B16D2"/>
</radialGradient>
</defs>
</svg>
