<svg width="34" height="32" viewBox="0 0 34 32" fill="none" xmlns="http://www.w3.org/2000/svg">
<path d="M15.8933 0.75504C16.1983 0.484188 16.592 0.334595 17 0.334595C17.4079 0.334595 17.8016 0.484188 18.1066 0.75504L33.1066 14.0884C33.4202 14.3862 33.6057 14.7943 33.6239 15.2264C33.6422 15.6585 33.4917 16.0808 33.2044 16.404C32.9171 16.7272 32.5154 16.9261 32.0841 16.9587C31.6529 16.9912 31.2259 16.8548 30.8933 16.5784L30.3333 16.0834V28.6667C30.3333 29.5508 29.9821 30.3986 29.357 31.0237C28.7319 31.6488 27.884 32 27 32H6.99996C6.1159 32 5.26806 31.6488 4.64294 31.0237C4.01782 30.3986 3.66663 29.5508 3.66663 28.6667V16.0834L3.10663 16.5784C2.77406 16.8548 2.34704 16.9912 1.91579 16.9587C1.48454 16.9261 1.08282 16.7272 0.795498 16.404C0.508175 16.0808 0.357749 15.6585 0.375997 15.2264C0.394246 14.7943 0.579739 14.3862 0.893293 14.0884L15.8933 0.75504ZM6.99996 13.1167V28.6667H12V20.3334C12 19.8913 12.1756 19.4674 12.4881 19.1549C12.8007 18.8423 13.2246 18.6667 13.6666 18.6667H20.3333C20.7753 18.6667 21.1992 18.8423 21.5118 19.1549C21.8244 19.4674 22 19.8913 22 20.3334V28.6667H27V13.1184L17 4.23004L6.99996 13.1167ZM18.6666 28.6667V22H15.3333V28.6667H18.6666Z" fill="white"/>
</svg>
