<svg width="21" height="20" viewBox="0 0 21 20" fill="none" xmlns="http://www.w3.org/2000/svg">
<path d="M5.95453 0H14.3414C17.5364 0 20.1324 2.6 20.1324 5.8V14.2C20.1324 15.7383 19.5223 17.2135 18.4362 18.3012C17.3502 19.3889 15.8773 20 14.3414 20H5.95453C2.75952 20 0.163574 17.4 0.163574 14.2V5.8C0.163574 4.26174 0.773691 2.78649 1.8597 1.69878C2.94572 0.61107 4.41867 0 5.95453 0ZM5.75484 2C4.80155 2 3.8873 2.37928 3.21322 3.05442C2.53915 3.72955 2.16045 4.64522 2.16045 5.6V14.4C2.16045 16.39 3.76794 18 5.75484 18H14.5411C15.4944 18 16.4086 17.6207 17.0827 16.9456C17.7568 16.2705 18.1355 15.3548 18.1355 14.4V5.6C18.1355 3.61 16.528 2 14.5411 2H5.75484ZM15.3898 3.5C15.7208 3.5 16.0382 3.6317 16.2723 3.86612C16.5063 4.10054 16.6378 4.41848 16.6378 4.75C16.6378 5.08152 16.5063 5.39946 16.2723 5.63388C16.0382 5.8683 15.7208 6 15.3898 6C15.0588 6 14.7413 5.8683 14.5073 5.63388C14.2732 5.39946 14.1417 5.08152 14.1417 4.75C14.1417 4.41848 14.2732 4.10054 14.5073 3.86612C14.7413 3.6317 15.0588 3.5 15.3898 3.5ZM10.148 5C11.472 5 12.7418 5.52678 13.678 6.46447C14.6142 7.40215 15.1402 8.67392 15.1402 10C15.1402 11.3261 14.6142 12.5979 13.678 13.5355C12.7418 14.4732 11.472 15 10.148 15C8.82396 15 7.55417 14.4732 6.61796 13.5355C5.68174 12.5979 5.15577 11.3261 5.15577 10C5.15577 8.67392 5.68174 7.40215 6.61796 6.46447C7.55417 5.52678 8.82396 5 10.148 5ZM10.148 7C9.35357 7 8.59169 7.31607 8.02996 7.87868C7.46823 8.44129 7.15265 9.20435 7.15265 10C7.15265 10.7956 7.46823 11.5587 8.02996 12.1213C8.59169 12.6839 9.35357 13 10.148 13C10.9424 13 11.7043 12.6839 12.266 12.1213C12.8277 11.5587 13.1433 10.7956 13.1433 10C13.1433 9.20435 12.8277 8.44129 12.266 7.87868C11.7043 7.31607 10.9424 7 10.148 7Z" fill="white"/>
</svg>
