<svg width="61" height="50" viewBox="0 0 61 50" fill="none" xmlns="http://www.w3.org/2000/svg">
<rect x="17" y="4" width="6" height="29" fill="white"/>
<rect x="23" y="4" width="6" height="13" transform="rotate(90 23 4)" fill="white"/>
<path d="M3 32C3 41.9104 20 43.397 20 32" stroke="white" stroke-width="6"/>
<circle cx="3" cy="32" r="3" fill="white"/>
<circle cx="10" cy="7" r="3" fill="white"/>
<rect x="29" y="3" width="6" height="19" fill="white"/>
<path d="M48.2129 12L52.8092 15.8567L40.4718 30.5598L35.8755 26.7031L48.2129 12Z" fill="white"/>
<path d="M51.2997 8.31428C52.3697 7.0391 54.2708 6.87277 55.546 7.94277V7.94277C56.8211 9.01277 56.9875 10.9139 55.9175 12.1891L51.4115 17.559C50.3415 18.8342 48.4404 19.0006 47.1652 17.9306V17.9306C45.89 16.8606 45.7237 14.9594 46.7937 13.6843L51.2997 8.31428Z" fill="white"/>
<path d="M53.9626 35.1353L49.9091 39.5589L35.7581 26.5919L39.8117 22.1683L53.9626 35.1353Z" fill="white"/>
<path d="M57.5102 38.3799C58.7375 39.5045 58.8208 41.411 57.6962 42.6383V42.6383C56.5716 43.8656 54.665 43.9489 53.4377 42.8243L48.2694 38.0884C47.0421 36.9638 46.9588 35.0572 48.0834 33.8299V33.8299C49.208 32.6026 51.1146 32.5194 52.3419 33.644L57.5102 38.3799Z" fill="white"/>
<rect x="29" y="31" width="6" height="14" fill="white"/>
<rect x="26" y="50" width="6" height="4" transform="rotate(-90 26 50)" fill="white"/>
<rect x="31" y="47" width="7" height="4" transform="rotate(-90 31 47)" fill="white"/>
<rect x="35" y="44" width="6" height="9" rx="3" transform="rotate(90 35 44)" fill="white"/>
<circle cx="32" cy="3" r="3" fill="white"/>
<circle cx="32" cy="31" r="3" fill="white"/>
<circle cx="32" cy="22" r="3" fill="white"/>
<circle cx="26" cy="47" r="3" fill="white"/>
<rect x="17" y="4" width="6" height="29" fill="white"/>
<rect x="23" y="4" width="6" height="13" transform="rotate(90 23 4)" fill="white"/>
<path d="M3 32C3 41.9104 20 43.397 20 32" stroke="white" stroke-width="6"/>
<circle cx="3" cy="32" r="3" fill="white"/>
<circle cx="10" cy="7" r="3" fill="white"/>
<rect x="29" y="3" width="6" height="19" fill="white"/>
<path d="M48.2129 12L52.8092 15.8567L40.4718 30.5598L35.8755 26.7031L48.2129 12Z" fill="white"/>
<path d="M51.2997 8.31428C52.3697 7.0391 54.2708 6.87277 55.546 7.94277V7.94277C56.8211 9.01277 56.9875 10.9139 55.9175 12.1891L51.4115 17.559C50.3415 18.8342 48.4404 19.0006 47.1652 17.9306V17.9306C45.89 16.8606 45.7237 14.9594 46.7937 13.6843L51.2997 8.31428Z" fill="white"/>
<path d="M53.9626 35.1353L49.9091 39.5589L35.7581 26.5919L39.8117 22.1683L53.9626 35.1353Z" fill="white"/>
<path d="M57.5102 38.3799C58.7375 39.5045 58.8208 41.411 57.6962 42.6383V42.6383C56.5716 43.8656 54.665 43.9489 53.4377 42.8243L48.2694 38.0884C47.0421 36.9638 46.9588 35.0572 48.0834 33.8299V33.8299C49.208 32.6026 51.1146 32.5194 52.3419 33.644L57.5102 38.3799Z" fill="white"/>
<rect x="29" y="31" width="6" height="14" fill="white"/>
<rect x="26" y="50" width="6" height="4" transform="rotate(-90 26 50)" fill="white"/>
<rect x="31" y="47" width="7" height="4" transform="rotate(-90 31 47)" fill="white"/>
<rect x="35" y="44" width="6" height="9" rx="3" transform="rotate(90 35 44)" fill="white"/>
<circle cx="32" cy="3" r="3" fill="white"/>
<circle cx="32" cy="31" r="3" fill="white"/>
<circle cx="32" cy="22" r="3" fill="white"/>
<circle cx="26" cy="47" r="3" fill="white"/>
</svg>
