<svg width="30" height="32" viewBox="0 0 30 32" fill="none" xmlns="http://www.w3.org/2000/svg">
<path d="M15 0.333374C13.3518 0.333374 11.7407 0.822115 10.3702 1.73779C8.99984 2.65347 7.93173 3.95496 7.301 5.47768C6.67027 7.0004 6.50525 8.67595 6.82679 10.2925C7.14833 11.909 7.94201 13.3938 9.10744 14.5593C10.2729 15.7247 11.7577 16.5184 13.3742 16.8399C14.9908 17.1615 16.6663 16.9964 18.189 16.3657C19.7117 15.735 21.0132 14.6669 21.9289 13.2965C22.8446 11.9261 23.3333 10.3149 23.3333 8.66671C23.3333 6.45657 22.4554 4.33695 20.8926 2.77415C19.3298 1.21135 17.2101 0.333374 15 0.333374ZM15 13.6667C14.0111 13.6667 13.0444 13.3735 12.2221 12.8241C11.3999 12.2746 10.759 11.4938 10.3806 10.5801C10.0022 9.6665 9.90315 8.66116 10.0961 7.69126C10.289 6.72135 10.7652 5.83044 11.4645 5.13117C12.1637 4.43191 13.0546 3.95571 14.0245 3.76278C14.9945 3.56986 15.9998 3.66887 16.9134 4.04731C17.827 4.42575 18.6079 5.06661 19.1573 5.88886C19.7068 6.7111 20 7.6778 20 8.66671C20 9.99279 19.4732 11.2646 18.5355 12.2022C17.5979 13.1399 16.3261 13.6667 15 13.6667ZM30 32V30.3334C30 27.2392 28.7708 24.2717 26.5829 22.0838C24.395 19.8959 21.4275 18.6667 18.3333 18.6667H11.6667C8.57247 18.6667 5.60501 19.8959 3.41709 22.0838C1.22916 24.2717 0 27.2392 0 30.3334V32H3.33333V30.3334C3.33333 28.1232 4.21131 26.0036 5.77411 24.4408C7.33691 22.878 9.45653 22 11.6667 22H18.3333C20.5435 22 22.6631 22.878 24.2259 24.4408C25.7887 26.0036 26.6667 28.1232 26.6667 30.3334V32H30Z" fill="white"/>
</svg>
