<svg width="28" height="28" viewBox="0 0 28 28" fill="none" xmlns="http://www.w3.org/2000/svg">
<path fill-rule="evenodd" clip-rule="evenodd" d="M3.49998 11C3.49998 9.01088 4.29016 7.10322 5.69668 5.6967C7.10321 4.29018 9.01086 3.5 11 3.5C12.9891 3.5 14.8968 4.29018 16.3033 5.6967C17.7098 7.10322 18.5 9.01088 18.5 11C18.5 12.9891 17.7098 14.8968 16.3033 16.3033C14.8968 17.7098 12.9891 18.5 11 18.5C9.01086 18.5 7.10321 17.7098 5.69668 16.3033C4.29016 14.8968 3.49998 12.9891 3.49998 11ZM11 0.5C9.33687 0.500003 7.69755 0.895063 6.21701 1.65265C4.73647 2.41023 3.45706 3.50867 2.48415 4.85751C1.51123 6.20635 0.87263 7.767 0.620939 9.41096C0.369248 11.0549 0.511664 12.7351 1.03646 14.3133C1.56125 15.8914 2.45341 17.3223 3.63948 18.4882C4.82554 19.654 6.27157 20.5214 7.8585 21.019C9.44543 21.5166 11.1279 21.6301 12.7672 21.3502C14.4066 21.0703 15.9561 20.405 17.288 19.409L24.938 27.0605C25.2192 27.342 25.6008 27.5002 25.9987 27.5003C26.3966 27.5004 26.7783 27.3425 27.0597 27.0613C27.3412 26.78 27.4994 26.3984 27.4995 26.0005C27.4997 25.6026 27.3417 25.221 27.0605 24.9395L19.4105 17.2895C20.578 15.7288 21.288 13.8739 21.4611 11.9325C21.6342 9.99112 21.2635 8.03987 20.3906 6.29721C19.5176 4.55455 18.1768 3.08927 16.5183 2.0654C14.8598 1.04154 12.9491 0.499511 11 0.5Z" fill="white"/>
</svg>
