<svg width="24" height="24" viewBox="0 0 24 24" fill="none" xmlns="http://www.w3.org/2000/svg">
<path d="M23.4004 10.9767L18.5715 15.1683L20.018 21.4089C20.0946 21.7351 20.0727 22.0765 19.9552 22.3905C19.8377 22.7045 19.6298 22.977 19.3574 23.1741C19.085 23.3711 18.7603 23.4839 18.4237 23.4984C18.0872 23.5129 17.7539 23.4284 17.4654 23.2555L11.993 19.9541L6.53242 23.2555C6.24394 23.4284 5.91061 23.5129 5.57411 23.4984C5.23761 23.4839 4.91286 23.3711 4.64047 23.1741C4.36809 22.977 4.16014 22.7045 4.04265 22.3905C3.92515 22.0765 3.9033 21.7351 3.97985 21.4089L5.42424 15.1747L0.594267 10.9767C0.338806 10.7575 0.15408 10.4683 0.0632555 10.1451C-0.0275688 9.82198 -0.0204485 9.47936 0.0837233 9.16022C0.187895 8.84109 0.384481 8.55965 0.648829 8.3512C0.913177 8.14274 1.23352 8.01656 1.56968 7.98846L7.93612 7.44001L10.4212 1.5445C10.551 1.23515 10.7699 0.970905 11.0504 0.78504C11.3308 0.599176 11.6603 0.5 11.9973 0.5C12.3343 0.5 12.6638 0.599176 12.9443 0.78504C13.2247 0.970905 13.4436 1.23515 13.5734 1.5445L16.066 7.44001L22.4303 7.98846C22.7665 8.01656 23.0868 8.14274 23.3512 8.3512C23.6155 8.55965 23.8121 8.84109 23.9163 9.16022C24.0204 9.47936 24.0276 9.82198 23.9367 10.1451C23.8459 10.4683 23.6612 10.7575 23.4057 10.9767H23.4004Z" fill="white" fill-opacity="0.1"/>
</svg>
