<svg width="21" height="20" viewBox="0 0 21 20" fill="none" xmlns="http://www.w3.org/2000/svg">
<path d="M10.939 0C5.4276 0 0.95459 4.48 0.95459 10C0.95459 15.52 5.4276 20 10.939 20C16.4504 20 20.9234 15.52 20.9234 10C20.9234 4.48 16.4504 0 10.939 0ZM15.5717 6.8C15.422 8.38 14.773 12.22 14.4435 13.99C14.3037 14.74 14.0242 14.99 13.7646 15.02C13.1855 15.07 12.7462 14.64 12.187 14.27C11.3084 13.69 10.8092 13.33 9.96052 12.77C8.97206 12.12 9.61106 11.76 10.1802 11.18C10.3299 11.03 12.8859 8.7 12.9359 8.49C12.9428 8.45819 12.9419 8.42517 12.9332 8.3938C12.9245 8.36244 12.9083 8.33367 12.8859 8.31C12.826 8.26 12.7462 8.28 12.6763 8.29C12.5864 8.31 11.1886 9.24 8.46286 11.08C8.06348 11.35 7.70404 11.49 7.38454 11.48C7.0251 11.47 6.34617 11.28 5.83696 11.11C5.20794 10.91 4.71871 10.8 4.75865 10.45C4.77861 10.27 5.02822 10.09 5.49749 9.9C8.41294 8.63 10.3499 7.79 11.3184 7.39C14.0941 6.23 14.6632 6.03 15.0426 6.03C15.1225 6.03 15.3122 6.05 15.432 6.15C15.5318 6.23 15.5618 6.34 15.5717 6.42C15.5618 6.48 15.5817 6.66 15.5717 6.8Z" fill="#FFFAFA"/>
</svg>
