<svg width="22" height="15" viewBox="0 0 22 15" fill="none" xmlns="http://www.w3.org/2000/svg">
<path d="M8.6186 10.7143L14.1706 7.5L8.6186 4.28571V10.7143ZM20.985 2.325C21.1241 2.82857 21.2203 3.50357 21.2845 4.36071C21.3594 5.21786 21.3915 5.95714 21.3915 6.6L21.4557 7.5C21.4557 9.84643 21.2845 11.5714 20.985 12.675C20.7176 13.6393 20.0971 14.2607 19.1343 14.5286C18.6315 14.6679 17.7115 14.7643 16.2995 14.8286C14.9088 14.9036 13.6358 14.9357 12.459 14.9357L10.7581 15C6.27584 15 3.48377 14.8286 2.38192 14.5286C1.41914 14.2607 0.798679 13.6393 0.53124 12.675C0.392172 12.1714 0.295894 11.4964 0.231708 10.6393C0.156825 9.78214 0.124732 9.04286 0.124732 8.4L0.0605469 7.5C0.0605469 5.15357 0.231708 3.42857 0.53124 2.325C0.798679 1.36071 1.41914 0.739286 2.38192 0.471429C2.88471 0.332143 3.8047 0.235714 5.21678 0.171428C6.60746 0.0964284 7.88047 0.0642857 9.0572 0.0642857L10.7581 0C15.2404 0 18.0325 0.171429 19.1343 0.471429C20.0971 0.739286 20.7176 1.36071 20.985 2.325Z" fill="white"/>
</svg>
